<?xml version="1.0" encoding="UTF-8" standalone="no"?>
<svg width="506px" height="187px" viewBox="0 0 506 187" version="1.1" xmlns="http://www.w3.org/2000/svg" xmlns:xlink="http://www.w3.org/1999/xlink" xmlns:sketch="http://www.bohemiancoding.com/sketch/ns">
    <title>charlotte</title>
    <description>Created with Sketch (http://www.bohemiancoding.com/sketch)</description>
    <defs></defs>
    <g id="Page 1" stroke="none" stroke-width="1" fill="none" fill-rule="evenodd">
        <g id="body" transform="translate(154.000000, 20.000000)" fill="#000000">
            <path d="M100,163 C155.228478,163 200,131.659934 200,93 C200,54.3400656 155.228478,23 100,23 C44.7715223,23 0,54.3400656 0,93 C0,131.659934 44.7715223,163 100,163 Z M100,163" id="Oval 1" stroke="#979797"></path>
            <path d="M100,93 C138.659934,93 170,72.1812421 170,46.5 C170,20.8187579 138.659934,0 100,0 C61.3400656,0 30,20.8187579 30,46.5 C30,72.1812421 61.3400656,93 100,93 Z M100,93" id="Oval 2"></path>
        </g>
        <path d="M254,179 C274.986822,179 292,164.449255 292,146.5 C292,128.550745 274.986822,114 254,114 C233.013178,114 216,128.550745 216,146.5 C216,164.449255 233.013178,179 254,179 Z M254,179" id="mouf" fill="#FF1616"></path>
        <path d="M254,169 C288.241656,169 316,145.271093 316,116 C316,86.7289068 288.241656,63 254,63 C219.758344,63 192,86.7289068 192,116 C192,145.271093 219.758344,169 254,169 Z M254,169" id="Oval 10" fill="#000000"></path>
        <path d="M211,154 C231.434537,154 248,135.867533 248,113.5 C248,91.1324665 231.434537,73 211,73 C190.565463,73 174,91.1324665 174,113.5 C174,135.867533 190.565463,154 211,154 Z M211,154" id="Oval 3" fill="#FFFFFF"></path>
        <path d="M297,154 C317.434537,154 334,135.867533 334,113.5 C334,91.1324665 317.434537,73 297,73 C276.565463,73 260,91.1324665 260,113.5 C260,135.867533 276.565463,154 297,154 Z M297,154" id="Oval 3" fill="#FFFFFF"></path>
        <path d="M297,135 C305.284272,135 312,128.284272 312,120 C312,111.715728 305.284272,105 297,105 C288.715728,105 282,111.715728 282,120 C282,128.284272 288.715728,135 297,135 Z M297,135" id="Oval 5" fill="#000000"></path>
        <path d="M211,135 C219.284272,135 226,128.284272 226,120 C226,111.715728 219.284272,105 211,105 C202.715728,105 196,111.715728 196,120 C196,128.284272 202.715728,135 211,135 Z M211,135" id="Oval 5 copy" fill="#000000"></path>
        <path d="M219,119 C221.761424,119 224,116.761424 224,114 C224,111.238576 221.761424,109 219,109 C216.238576,109 214,111.238576 214,114 C214,116.761424 216.238576,119 219,119 Z M219,119" id="Oval 5 copy 2" fill="#FFFFFF"></path>
        <path d="M305,119 C307.761424,119 310,116.761424 310,114 C310,111.238576 307.761424,109 305,109 C302.238576,109 300,111.238576 300,114 C300,116.761424 302.238576,119 305,119 Z M305,119" id="Oval 5 copy 3" fill="#FFFFFF"></path>
        <g id="r-legs" transform="translate(338.000000, 0.000000)">
            <path d="M0.5,79.5 L42,37" id="Line" stroke="#000000" stroke-width="8" stroke-linecap="square"></path>
            <path d="M8.5,96.5 L68,64" id="Line copy" stroke="#000000" stroke-width="8" stroke-linecap="square"></path>
            <path d="M13.5,111.5 L64,97" id="Line copy 2" stroke="#000000" stroke-width="8" stroke-linecap="square"></path>
            <path d="M13.5,129.5 L53,141" id="Line copy 3" stroke="#000000" stroke-width="8" stroke-linecap="square"></path>
            <path d="M41.7783203,31.4614258 L101.387695,0.103515625 L47.6591797,36.9707031 L41.7783203,31.4614258 Z M41.7783203,31.4614258" id="Path 5" fill="#000000"></path>
            <path d="M69.505127,58.598877 L168.210377,74.5156245 L73.3325196,65.5915528 L69.505127,58.598877 Z M69.505127,58.598877" id="Path 6" fill="#000000"></path>
            <path d="M66.5241699,92.0983887 L140.72168,124.665039 L68.7148438,99.7978516 L66.5241699,92.0983887 Z M66.5241699,92.0983887" id="Path 7" fill="#000000"></path>
            <path d="M55.7185059,145.993652 L92.1259766,186.305664 L57.8789062,138.069092 L55.7185059,145.993652 Z M55.7185059,145.993652" id="Path 8" fill="#000000"></path>
        </g>
        <g id="r-legs copy" transform="translate(83.500000, 93.500000) scale(-1, 1) translate(-83.500000, -93.500000) translate(-1.000000, 0.000000)">
            <path d="M0.5,79.5 L42,37" id="Line" stroke="#000000" stroke-width="8" stroke-linecap="square"></path>
            <path d="M8.5,96.5 L68,64" id="Line copy" stroke="#000000" stroke-width="8" stroke-linecap="square"></path>
            <path d="M13.5,111.5 L64,97" id="Line copy 2" stroke="#000000" stroke-width="8" stroke-linecap="square"></path>
            <path d="M13.5,129.5 L53,141" id="Line copy 3" stroke="#000000" stroke-width="8" stroke-linecap="square"></path>
            <path d="M41.7783203,31.4614258 L101.387695,0.103515625 L47.6591797,36.9707031 L41.7783203,31.4614258 Z M41.7783203,31.4614258" id="Path 5" fill="#000000"></path>
            <path d="M69.505127,58.598877 L168.210377,74.5156245 L73.3325196,65.5915528 L69.505127,58.598877 Z M69.505127,58.598877" id="Path 6" fill="#000000"></path>
            <path d="M66.5241699,92.0983887 L140.72168,124.665039 L68.7148438,99.7978516 L66.5241699,92.0983887 Z M66.5241699,92.0983887" id="Path 7" fill="#000000"></path>
            <path d="M55.7185059,145.993652 L92.1259766,186.305664 L57.8789062,138.069092 L55.7185059,145.993652 Z M55.7185059,145.993652" id="Path 8" fill="#000000"></path>
        </g>
    </g>
</svg>